<mxfile host="app.diagrams.net" modified="2023-05-26T01:02:23.034Z" agent="Mozilla/5.0 (Windows NT 10.0; Win64; x64) AppleWebKit/537.36 (KHTML, like Gecko) Chrome/113.0.0.0 Safari/537.36" etag="2Uj9jEqlgHAzs4X7eFhe" version="21.3.2" type="device">
  <diagram name="페이지-1" id="jSPM5f2FQXFFPR4AX0ky">
    <mxGraphModel dx="1195" dy="657" grid="1" gridSize="10" guides="1" tooltips="1" connect="1" arrows="1" fold="1" page="1" pageScale="1" pageWidth="4681" pageHeight="3300" math="0" shadow="0">
      <root>
        <mxCell id="0" />
        <mxCell id="1" parent="0" />
        <mxCell id="pwawJaXWDqcMiYD1f6r8-16" style="rounded=0;orthogonalLoop=1;jettySize=auto;html=1;entryX=0.5;entryY=0;entryDx=0;entryDy=0;exitX=0.5;exitY=1;exitDx=0;exitDy=0;" edge="1" parent="1" source="pwawJaXWDqcMiYD1f6r8-1" target="pwawJaXWDqcMiYD1f6r8-2">
          <mxGeometry relative="1" as="geometry" />
        </mxCell>
        <mxCell id="pwawJaXWDqcMiYD1f6r8-21" style="edgeStyle=none;shape=connector;rounded=0;orthogonalLoop=1;jettySize=auto;html=1;entryX=0.5;entryY=0;entryDx=0;entryDy=0;labelBackgroundColor=default;strokeColor=default;fontFamily=Helvetica;fontSize=11;fontColor=default;endArrow=classic;exitX=0.5;exitY=1;exitDx=0;exitDy=0;" edge="1" parent="1" source="pwawJaXWDqcMiYD1f6r8-1" target="pwawJaXWDqcMiYD1f6r8-10">
          <mxGeometry relative="1" as="geometry" />
        </mxCell>
        <mxCell id="pwawJaXWDqcMiYD1f6r8-1" value="학생정보" style="whiteSpace=wrap;html=1;align=center;" vertex="1" parent="1">
          <mxGeometry x="625" y="158" width="100" height="40" as="geometry" />
        </mxCell>
        <mxCell id="pwawJaXWDqcMiYD1f6r8-2" value="학번" style="ellipse;whiteSpace=wrap;html=1;align=center;fontStyle=4;" vertex="1" parent="1">
          <mxGeometry x="385" y="308" width="100" height="40" as="geometry" />
        </mxCell>
        <mxCell id="pwawJaXWDqcMiYD1f6r8-7" value="이름" style="ellipse;whiteSpace=wrap;html=1;align=center;" vertex="1" parent="1">
          <mxGeometry x="505" y="308" width="100" height="40" as="geometry" />
        </mxCell>
        <mxCell id="pwawJaXWDqcMiYD1f6r8-8" value="학과" style="ellipse;whiteSpace=wrap;html=1;align=center;" vertex="1" parent="1">
          <mxGeometry x="625" y="308" width="100" height="40" as="geometry" />
        </mxCell>
        <mxCell id="pwawJaXWDqcMiYD1f6r8-9" value="학년" style="ellipse;whiteSpace=wrap;html=1;align=center;" vertex="1" parent="1">
          <mxGeometry x="745" y="308" width="100" height="40" as="geometry" />
        </mxCell>
        <mxCell id="pwawJaXWDqcMiYD1f6r8-10" value="전화번호" style="ellipse;whiteSpace=wrap;html=1;align=center;" vertex="1" parent="1">
          <mxGeometry x="865" y="308" width="100" height="40" as="geometry" />
        </mxCell>
        <mxCell id="pwawJaXWDqcMiYD1f6r8-17" style="rounded=0;orthogonalLoop=1;jettySize=auto;html=1;entryX=0.5;entryY=0;entryDx=0;entryDy=0;exitX=0.5;exitY=1;exitDx=0;exitDy=0;" edge="1" parent="1" source="pwawJaXWDqcMiYD1f6r8-1" target="pwawJaXWDqcMiYD1f6r8-7">
          <mxGeometry relative="1" as="geometry">
            <mxPoint x="645" y="218" as="sourcePoint" />
            <mxPoint x="445" y="318" as="targetPoint" />
          </mxGeometry>
        </mxCell>
        <mxCell id="pwawJaXWDqcMiYD1f6r8-18" style="rounded=0;orthogonalLoop=1;jettySize=auto;html=1;entryX=0.5;entryY=0;entryDx=0;entryDy=0;exitX=0.5;exitY=1;exitDx=0;exitDy=0;" edge="1" parent="1" source="pwawJaXWDqcMiYD1f6r8-1" target="pwawJaXWDqcMiYD1f6r8-8">
          <mxGeometry relative="1" as="geometry">
            <mxPoint x="655" y="228" as="sourcePoint" />
            <mxPoint x="455" y="328" as="targetPoint" />
          </mxGeometry>
        </mxCell>
        <mxCell id="pwawJaXWDqcMiYD1f6r8-19" style="rounded=0;orthogonalLoop=1;jettySize=auto;html=1;entryX=0.5;entryY=0;entryDx=0;entryDy=0;exitX=0.5;exitY=1;exitDx=0;exitDy=0;" edge="1" parent="1" source="pwawJaXWDqcMiYD1f6r8-1" target="pwawJaXWDqcMiYD1f6r8-9">
          <mxGeometry relative="1" as="geometry">
            <mxPoint x="665" y="238" as="sourcePoint" />
            <mxPoint x="465" y="338" as="targetPoint" />
          </mxGeometry>
        </mxCell>
      </root>
    </mxGraphModel>
  </diagram>
</mxfile>
